<svg width="129" height="46" viewBox="0 0 129 46" fill="none" xmlns="http://www.w3.org/2000/svg">
<path d="M31.6719 2.50391L33.4159 14.4879H31.1279L30.1999 7.23991H30.1679L27.5279 14.6319H26.7439L24.1839 7.23991H24.1519L23.1119 14.4879H20.8239L22.7919 2.50391H24.4079L27.2879 10.1999L30.0399 2.50391H31.6879H31.6719ZM42.2319 10.6959C42.2319 13.0479 40.6159 14.7279 38.2479 14.7279C35.8799 14.7279 34.2479 13.0479 34.2479 10.6959C34.2479 8.34391 35.8799 6.64791 38.2479 6.64791C40.6159 6.64791 42.2319 8.32791 42.2319 10.6959ZM40.0399 10.6959C40.0399 9.63991 39.3519 8.56791 38.2479 8.56791C37.1439 8.56791 36.4559 9.65591 36.4559 10.6959C36.4559 11.7359 37.1439 12.8239 38.2479 12.8239C39.3519 12.8239 40.0399 11.7199 40.0399 10.6959ZM47.8159 6.64791C47.0479 6.64791 46.2799 6.90391 45.8319 7.59191H45.7999V6.88791H43.6399V14.4879H45.7999V10.7279C45.7999 9.81591 45.8159 8.37591 47.0959 8.37591C48.3759 8.37591 48.2799 9.55991 48.2799 10.4719V14.4879H50.4399V9.84791C50.4399 8.08791 49.8479 6.64791 47.8159 6.64791ZM59.1279 10.7759V11.0319H54.1359C54.1359 11.9919 54.5039 13.0799 55.6399 13.0799C56.3599 13.0799 56.8079 12.6479 57.0959 12.0399L59.0959 12.3599C58.5679 13.8799 57.2399 14.7279 55.6399 14.7279C53.2879 14.7279 51.8479 13.0639 51.8479 10.7439C51.8479 8.42391 53.0639 6.63191 55.5279 6.63191C57.9919 6.63191 59.1279 8.47191 59.1279 10.7599V10.7759ZM57.0799 9.68791C56.9679 8.91991 56.4719 8.15191 55.6399 8.15191C54.8079 8.15191 54.2959 8.88791 54.1839 9.68791H57.0799ZM63.7359 11.2079L61.9279 6.88791H59.4639L62.6959 13.3359L60.1839 18.5519H62.5679L68.0879 6.90391H65.6719L63.7199 11.2239L63.7359 11.2079ZM85.2719 10.6959C85.2719 13.0479 83.6559 14.7279 81.2719 14.7279C78.8879 14.7279 77.2719 13.0479 77.2719 10.6959C77.2719 8.34391 78.9039 6.64791 81.2719 6.64791C83.6399 6.64791 85.2719 8.32791 85.2719 10.6959ZM83.0799 10.6959C83.0799 9.63991 82.3919 8.56791 81.2879 8.56791C80.1839 8.56791 79.4959 9.65591 79.4959 10.6959C79.4959 11.7359 80.1839 12.8239 81.2879 12.8239C82.3919 12.8239 83.0799 11.7199 83.0799 10.6959ZM88.7119 7.67191H88.6799V6.88791H86.5199V14.4879H88.6799V11.0639C88.6799 9.87991 88.8399 8.55191 90.3439 8.55191C90.6639 8.55191 90.9839 8.64791 91.2399 8.82391L91.4959 6.80791C91.2239 6.69591 90.9039 6.61591 90.5999 6.61591C89.7999 6.61591 89.1439 6.98391 88.7119 7.65591V7.67191ZM111 6.88791H113.128V14.4879H111V13.7999H110.968C110.504 14.4079 109.704 14.7439 108.904 14.7439C106.68 14.7439 105.4 12.7119 105.4 10.6639C105.4 8.61591 106.68 6.64791 108.872 6.64791C109.656 6.64791 110.472 6.98391 111 7.60791V6.88791ZM111.224 10.6799C111.224 9.65591 110.52 8.55191 109.416 8.55191C108.312 8.55191 107.624 9.65591 107.624 10.6799C107.624 11.7039 108.312 12.8079 109.416 12.8079C110.52 12.8079 111.224 11.6879 111.224 10.6799ZM117.128 7.67191H117.096V6.88791H114.936V14.4879H117.096V11.0639C117.096 9.87991 117.256 8.55191 118.76 8.55191C119.08 8.55191 119.4 8.64791 119.656 8.82391L119.912 6.80791C119.64 6.69591 119.32 6.61591 119.016 6.61591C118.216 6.61591 117.56 6.98391 117.128 7.65591V7.67191ZM128.04 2.80791V14.4719H125.88V13.7679H125.848C125.4 14.3919 124.6 14.7279 123.8 14.7279C121.576 14.7279 120.296 12.6959 120.296 10.6479C120.296 8.59991 121.576 6.63191 123.768 6.63191C124.552 6.63191 125.368 6.96791 125.848 7.57591H125.88V2.80791H128.04ZM126.088 10.6639C126.088 9.63991 125.4 8.53591 124.296 8.53591C123.192 8.53591 122.504 9.63991 122.504 10.6639C122.504 11.6879 123.192 12.7919 124.296 12.7919C125.4 12.7919 126.088 11.6719 126.088 10.6639ZM70.9519 14.4719H73.2239V9.33591H76.5199V7.35191H73.2239V4.77591H76.7279V2.79191H70.9359V14.4559L70.9519 14.4719ZM108.536 4.98391L108.712 2.85591C108.264 2.85591 107.832 2.91991 107.4 3.01591C105.592 3.46391 104.168 4.75991 103.192 6.31191C102.472 7.44791 101.944 8.69591 101.384 9.92791L101.16 10.4079C101.112 10.5199 101.048 10.6479 100.968 10.7919L99.2559 6.64791H98.0559L96.2959 10.9039L94.6159 6.88791H92.2479L95.7519 14.6479H96.8719L98.6799 10.0239L100.312 14.6479C100.648 14.6479 101.416 14.6479 101.416 14.6479L101.448 14.5839C101.768 13.9279 103.576 9.86391 104.312 8.43991C104.632 7.83191 105.064 7.09591 105.496 6.56791C106.296 5.60791 107.4 4.95191 108.568 4.98391H108.536ZM12.3759 10.9679C11.9439 10.9679 11.5439 10.7759 11.3039 10.4239L9.89592 8.42391L8.80792 11.5919C8.66392 12.0239 8.27993 12.3439 7.83193 12.4239C7.36793 12.5039 6.91993 12.3279 6.63193 11.9599L5.67193 10.7439L4.98392 12.9679C4.80792 13.5119 4.31192 13.8479 3.78392 13.8479C3.65592 13.8479 3.52793 13.8319 3.41593 13.7839C2.74393 13.5759 2.37592 12.8719 2.58392 12.1999L3.99192 7.67191C4.13592 7.22391 4.50393 6.88791 4.96793 6.80791C5.43193 6.72791 5.89592 6.90391 6.18392 7.27191L7.19192 8.55191L8.32792 5.22391C8.48792 4.77591 8.87192 4.45591 9.35192 4.37591C9.81592 4.31191 10.2959 4.51991 10.5679 4.90391L12.2959 7.36791L14.6159 3.57591C13.0959 1.75191 10.8239 0.583907 8.26393 0.583907C3.70393 0.583907 0.0239258 4.27991 0.0239258 8.82391C0.0239258 13.3679 3.71993 17.0639 8.26393 17.0639C12.8079 17.0639 16.5039 13.3679 16.5039 8.82391C16.5039 7.86391 16.3439 6.93591 16.0399 6.07191L13.4319 10.3119C13.2079 10.6799 12.8239 10.9039 12.3919 10.9199L12.3759 10.9679ZM17.0479 0.503906C16.1359 0.503906 15.4159 1.23991 15.4159 2.13591C15.4159 3.03191 16.1519 3.76791 17.0479 3.76791C17.9439 3.76791 18.6799 3.03191 18.6799 2.13591C18.6799 1.23991 17.9439 0.503906 17.0479 0.503906Z" fill="#0054AC"/>
<path d="M125.192 35.1921H121.4V45.4641H119.08V35.1921H115.416V32.9681H119.08V26.8561H121.4V32.9681H125.192V35.1921ZM106.584 31.9761H114.808V29.9121H106.584V31.9761ZM114.12 26.8561H107.592V28.7601H114.12V26.8561ZM114.056 33.1601H107.544V35.0161H114.056V33.1601ZM107.544 38.0401H114.056V36.1841H107.544V38.0401ZM114.44 40.7761V43.8961C114.44 45.0161 113.88 45.4801 112.728 45.4801H108.856C107.704 45.4801 107.144 45.0001 107.144 43.8961V40.7761C107.144 39.6561 107.704 39.2081 108.856 39.2081H112.728C113.88 39.2081 114.44 39.6561 114.44 40.7761ZM112.344 41.4641C112.344 41.1121 112.2 41.0321 111.848 41.0321H109.72C109.368 41.0321 109.24 41.1121 109.24 41.4641V43.2081C109.24 43.5601 109.368 43.6561 109.72 43.6561H111.848C112.2 43.6561 112.344 43.5601 112.344 43.2081V41.4641ZM90.2801 32.6481V34.7441H99.5921V32.6481H90.2801ZM96.5681 26.9521C96.2001 26.5361 95.5601 26.3281 94.9361 26.3281C94.3121 26.3281 93.6881 26.5361 93.3041 26.9521C91.2881 29.2561 88.7441 31.1121 86.1201 32.3441V35.0001C87.2081 34.4881 88.9041 33.5281 89.9441 32.8561L90.4721 32.5041C92.0561 31.4161 93.5121 30.1521 94.6001 28.8401C94.7121 28.6961 94.8241 28.6321 94.9361 28.6321C95.0481 28.6321 95.1601 28.6961 95.2721 28.8401C96.3601 30.1521 97.8161 31.4161 99.4001 32.5041L99.9281 32.8561C100.968 33.5281 102.664 34.4881 103.752 35.0001V32.3441C101.128 31.1121 98.5841 29.2401 96.5681 26.9521ZM86.1361 38.5841H91.3681C90.6801 40.1361 89.9921 41.5601 89.2721 42.9841C88.5361 43.0161 87.9761 43.0161 87.2401 43.0321V45.2881C91.9441 45.2081 95.6721 44.8561 99.8961 44.1201L99.8641 44.0561L100.728 45.4961H103.512L100.2 40.2481H97.5441L98.7121 42.1681C96.3281 42.5361 94.0241 42.7921 91.9441 42.9201C92.6321 41.4801 93.2241 40.2161 93.8961 38.6161H103.768V36.5041H86.1521V38.6001L86.1361 38.5841ZM79.1121 27.0961H76.8721V30.7281H79.1121V27.0961ZM43.4321 27.3521H31.5281V29.8801H43.4321V27.3521ZM72.9361 27.0961H70.1841V45.2721H72.9361V36.5841C76.0081 37.4321 79.3361 38.6161 82.2481 39.8961V36.6801C79.2721 35.4961 76.1681 34.4401 72.9361 33.5601V27.1121V27.0961ZM80.2481 27.0961V30.7281H82.5201V27.0961H80.2481ZM62.8561 29.7681H58.8241V27.0961H56.0721V29.7681H52.1361C50.3601 29.7681 49.4641 30.6161 49.4641 32.3441V36.3121H52.1681V33.0481C52.1681 32.3921 52.3761 32.1681 53.1281 32.1681H61.9921C62.6961 32.1681 62.9521 32.3761 62.9521 33.0001V33.1441C62.8241 35.6241 62.1201 37.7041 60.6481 39.3361C59.3041 40.8401 57.0321 41.9761 54.5361 42.5841V45.2881C57.2721 44.8881 60.2321 43.5921 62.3761 41.4641C64.5201 39.3361 65.5921 36.3281 65.7681 32.9361C65.7681 32.8561 65.7681 32.7441 65.7681 32.6641C65.7681 30.7601 64.9841 29.7841 62.8401 29.7841L62.8561 29.7681ZM43.2241 32.4241H29.7841V34.9681H42.1041C42.6801 34.9681 42.9201 35.1761 42.9201 35.5281C42.9201 35.6561 42.9041 35.7841 42.8561 35.9121C41.9601 39.1601 39.0641 41.8481 33.6561 42.6001V45.3041C40.5521 44.6801 44.6481 40.7441 45.6881 35.9281C45.7681 35.5441 45.8161 35.1601 45.8161 34.8401C45.8161 34.3121 45.7041 33.8801 45.4801 33.5121C45.0481 32.8241 44.3761 32.4401 43.2401 32.4401L43.2241 32.4241ZM23.6081 28.6481H17.6881C17.8961 28.1521 18.0881 27.6241 18.2641 27.0961H15.3041C14.8401 28.3601 14.2961 29.4641 13.4001 30.6641C12.6321 31.7041 11.7521 32.6161 10.8721 33.3041V36.6641C12.7761 35.4481 14.2481 34.0561 15.4801 32.5201C15.8161 32.0881 16.1361 31.6241 16.4561 31.1121H22.5041C23.1281 31.1121 23.3521 31.3201 23.3361 31.7041C23.3361 31.8321 23.3201 31.9281 23.2881 32.0561C22.1841 37.0961 18.6481 40.8881 13.1121 42.5201V45.3041C20.5361 43.5921 24.9361 38.3601 26.2161 32.1521C26.2801 31.8001 26.3281 31.4961 26.3281 31.1921C26.3281 29.6241 25.4161 28.6481 23.6241 28.6641L23.6081 28.6481Z" fill="#4A4A4A"/>
</svg>
